<mxfile host="app.diagrams.net" modified="2022-10-17T09:21:26.657Z" agent="5.0 (Windows NT 10.0; Win64; x64) AppleWebKit/537.36 (KHTML, like Gecko) Chrome/106.0.0.0 Safari/537.36" etag="by2o35rW6tFtkWzic172" version="20.4.1" type="github">
  <diagram id="beZ-7tQAFX7n_ItVVS6i" name="Sivu-1">
    <mxGraphModel dx="1185" dy="693" grid="1" gridSize="10" guides="1" tooltips="1" connect="1" arrows="1" fold="1" page="1" pageScale="1" pageWidth="827" pageHeight="1169" math="0" shadow="0">
      <root>
        <mxCell id="0" />
        <mxCell id="1" parent="0" />
        <mxCell id="JL1w-D3OX3Rwek_3S_tA-1" value="" style="rounded=0;whiteSpace=wrap;html=1;" vertex="1" parent="1">
          <mxGeometry x="40" y="85" width="40" height="20" as="geometry" />
        </mxCell>
        <mxCell id="JL1w-D3OX3Rwek_3S_tA-2" value="= hanke" style="text;html=1;strokeColor=none;fillColor=none;align=left;verticalAlign=middle;whiteSpace=wrap;rounded=0;" vertex="1" parent="1">
          <mxGeometry x="90" y="80" width="120" height="30" as="geometry" />
        </mxCell>
        <mxCell id="JL1w-D3OX3Rwek_3S_tA-3" value="" style="rounded=1;whiteSpace=wrap;html=1;treeFolding=0;enumerate=0;comic=0;" vertex="1" parent="1">
          <mxGeometry x="40" y="125" width="40" height="20" as="geometry" />
        </mxCell>
        <mxCell id="JL1w-D3OX3Rwek_3S_tA-4" value="= prosessi" style="text;html=1;strokeColor=none;fillColor=none;align=left;verticalAlign=middle;whiteSpace=wrap;rounded=0;" vertex="1" parent="1">
          <mxGeometry x="90" y="120" width="120" height="30" as="geometry" />
        </mxCell>
        <mxCell id="JL1w-D3OX3Rwek_3S_tA-5" value="" style="rhombus;whiteSpace=wrap;html=1;comic=0;" vertex="1" parent="1">
          <mxGeometry x="40" y="165" width="40" height="20" as="geometry" />
        </mxCell>
        <mxCell id="JL1w-D3OX3Rwek_3S_tA-6" value="= tehtävä" style="text;html=1;strokeColor=none;fillColor=none;align=left;verticalAlign=middle;whiteSpace=wrap;rounded=0;" vertex="1" parent="1">
          <mxGeometry x="90" y="160" width="120" height="30" as="geometry" />
        </mxCell>
        <mxCell id="JL1w-D3OX3Rwek_3S_tA-7" value="" style="rounded=0;whiteSpace=wrap;html=1;fillColor=#1ba1e2;fontColor=#ffffff;strokeColor=#006EAF;" vertex="1" parent="1">
          <mxGeometry x="280" y="85" width="20" height="20" as="geometry" />
        </mxCell>
        <mxCell id="JL1w-D3OX3Rwek_3S_tA-8" value="&lt;font style=&quot;font-size: 14px;&quot;&gt;TYYPPI&lt;/font&gt;" style="text;html=1;strokeColor=none;fillColor=none;align=center;verticalAlign=middle;whiteSpace=wrap;rounded=0;" vertex="1" parent="1">
          <mxGeometry x="60" y="50" width="60" height="30" as="geometry" />
        </mxCell>
        <mxCell id="JL1w-D3OX3Rwek_3S_tA-9" value="&lt;font style=&quot;font-size: 14px;&quot;&gt;ORGANISAATIO&lt;/font&gt;" style="text;html=1;strokeColor=none;fillColor=none;align=center;verticalAlign=middle;whiteSpace=wrap;rounded=0;" vertex="1" parent="1">
          <mxGeometry x="280" y="55" width="110" height="30" as="geometry" />
        </mxCell>
        <mxCell id="JL1w-D3OX3Rwek_3S_tA-10" value="= Ympäristöministeriö" style="text;html=1;strokeColor=none;fillColor=none;align=left;verticalAlign=middle;whiteSpace=wrap;rounded=0;" vertex="1" parent="1">
          <mxGeometry x="310" y="80" width="120" height="30" as="geometry" />
        </mxCell>
        <mxCell id="JL1w-D3OX3Rwek_3S_tA-11" value="" style="rounded=0;whiteSpace=wrap;html=1;fillColor=#60a917;fontColor=#ffffff;strokeColor=#2D7600;" vertex="1" parent="1">
          <mxGeometry x="280" y="120" width="20" height="20" as="geometry" />
        </mxCell>
        <mxCell id="JL1w-D3OX3Rwek_3S_tA-12" value="= SYKE" style="text;html=1;strokeColor=none;fillColor=none;align=left;verticalAlign=middle;whiteSpace=wrap;rounded=0;" vertex="1" parent="1">
          <mxGeometry x="310" y="115" width="120" height="30" as="geometry" />
        </mxCell>
      </root>
    </mxGraphModel>
  </diagram>
</mxfile>
